%TF.GenerationSoftware,KiCad,Pcbnew,7.0.6-7.0.6~ubuntu22.04.1*%
%TF.CreationDate,2023-08-02T20:46:46-04:00*%
%TF.ProjectId,AG_HARVEST_LED,41475f48-4152-4564-9553-545f4c45442e,rev?*%
%TF.SameCoordinates,Original*%
%TF.FileFunction,Paste,Top*%
%TF.FilePolarity,Positive*%
%FSLAX46Y46*%
G04 Gerber Fmt 4.6, Leading zero omitted, Abs format (unit mm)*
G04 Created by KiCad (PCBNEW 7.0.6-7.0.6~ubuntu22.04.1) date 2023-08-02 20:46:46*
%MOMM*%
%LPD*%
G01*
G04 APERTURE LIST*
G04 Aperture macros list*
%AMRoundRect*
0 Rectangle with rounded corners*
0 $1 Rounding radius*
0 $2 $3 $4 $5 $6 $7 $8 $9 X,Y pos of 4 corners*
0 Add a 4 corners polygon primitive as box body*
4,1,4,$2,$3,$4,$5,$6,$7,$8,$9,$2,$3,0*
0 Add four circle primitives for the rounded corners*
1,1,$1+$1,$2,$3*
1,1,$1+$1,$4,$5*
1,1,$1+$1,$6,$7*
1,1,$1+$1,$8,$9*
0 Add four rect primitives between the rounded corners*
20,1,$1+$1,$2,$3,$4,$5,0*
20,1,$1+$1,$4,$5,$6,$7,0*
20,1,$1+$1,$6,$7,$8,$9,0*
20,1,$1+$1,$8,$9,$2,$3,0*%
G04 Aperture macros list end*
%ADD10R,2.180000X2.200000*%
%ADD11R,1.110000X2.200000*%
%ADD12RoundRect,0.100000X0.385000X0.850000X-0.385000X0.850000X-0.385000X-0.850000X0.385000X-0.850000X0*%
%ADD13RoundRect,0.100000X0.915000X0.850000X-0.915000X0.850000X-0.915000X-0.850000X0.915000X-0.850000X0*%
%ADD14C,3.810000*%
G04 APERTURE END LIST*
D10*
%TO.C,K36*%
X222885000Y-81915000D03*
D11*
X220740000Y-81915000D03*
%TD*%
D10*
%TO.C,W29*%
X261620000Y-101600000D03*
D11*
X259475000Y-101600000D03*
%TD*%
D10*
%TO.C,K9*%
X175895000Y-142240000D03*
D11*
X173750000Y-142240000D03*
%TD*%
D10*
%TO.C,W15*%
X32385000Y-121920000D03*
D11*
X30240000Y-121920000D03*
%TD*%
D10*
%TO.C,K26*%
X70485000Y-121920000D03*
D11*
X68340000Y-121920000D03*
%TD*%
D10*
%TO.C,K24*%
X78910000Y-61595000D03*
D11*
X76765000Y-61595000D03*
%TD*%
D10*
%TO.C,K35*%
X165975000Y-121920000D03*
D11*
X163830000Y-121920000D03*
%TD*%
D10*
%TO.C,K37*%
X222885000Y-121920000D03*
D11*
X220740000Y-121920000D03*
%TD*%
D10*
%TO.C,W24*%
X210185000Y-162560000D03*
D11*
X208040000Y-162560000D03*
%TD*%
D10*
%TO.C,K32*%
X146685000Y-121920000D03*
D11*
X144540000Y-121920000D03*
%TD*%
D10*
%TO.C,K18*%
X195115000Y-61595000D03*
D11*
X192970000Y-61595000D03*
%TD*%
D10*
%TO.C,W30*%
X261155000Y-81915000D03*
D11*
X259010000Y-81915000D03*
%TD*%
D10*
%TO.C,W26*%
X247185000Y-162560000D03*
D11*
X245040000Y-162560000D03*
%TD*%
D10*
%TO.C,W18*%
X66675000Y-162560000D03*
D11*
X64530000Y-162560000D03*
%TD*%
D10*
%TO.C,K4*%
X51605000Y-121920000D03*
D11*
X49460000Y-121920000D03*
%TD*%
D10*
%TO.C,K8*%
X117645000Y-142240000D03*
D11*
X115500000Y-142240000D03*
%TD*%
D10*
%TO.C,W13*%
X32385000Y-81915000D03*
D11*
X30240000Y-81915000D03*
%TD*%
D10*
%TO.C,K28*%
X127170000Y-101600000D03*
D11*
X125025000Y-101600000D03*
%TD*%
D10*
%TO.C,K16*%
X233850000Y-61595000D03*
D11*
X231705000Y-61595000D03*
%TD*%
D10*
%TO.C,K27*%
X127635000Y-81915000D03*
D11*
X125490000Y-81915000D03*
%TD*%
D10*
%TO.C,K23*%
X98425000Y-61595000D03*
D11*
X96280000Y-61595000D03*
%TD*%
D10*
%TO.C,K19*%
X175430000Y-61595000D03*
D11*
X173285000Y-61595000D03*
%TD*%
D10*
%TO.C,W20*%
X101600000Y-162560000D03*
D11*
X99455000Y-162560000D03*
%TD*%
D10*
%TO.C,W36*%
X184955000Y-101600000D03*
D11*
X182810000Y-101600000D03*
%TD*%
D12*
%TO.C,R2*%
X88965000Y-101600000D03*
D13*
X86965000Y-101600000D03*
%TD*%
D10*
%TO.C,W28*%
X260520000Y-121920000D03*
D11*
X258375000Y-121920000D03*
%TD*%
D10*
%TO.C,W10*%
X223690000Y-41275000D03*
D11*
X221545000Y-41275000D03*
%TD*%
D10*
%TO.C,W33*%
X107555000Y-101600000D03*
D11*
X105410000Y-101600000D03*
%TD*%
D10*
%TO.C,W9*%
X207180000Y-41275000D03*
D11*
X205035000Y-41275000D03*
%TD*%
D10*
%TO.C,K10*%
X195115000Y-142240000D03*
D11*
X192970000Y-142240000D03*
%TD*%
D12*
%TO.C,R5*%
X204295000Y-101600000D03*
D13*
X202295000Y-101600000D03*
%TD*%
D10*
%TO.C,W3*%
X86530000Y-41275000D03*
D11*
X84385000Y-41275000D03*
%TD*%
D10*
%TO.C,K7*%
X97960000Y-142240000D03*
D11*
X95815000Y-142240000D03*
%TD*%
D10*
%TO.C,K29*%
X127875000Y-121920000D03*
D11*
X125730000Y-121920000D03*
%TD*%
D10*
%TO.C,W27*%
X253365000Y-142240000D03*
D11*
X251220000Y-142240000D03*
%TD*%
D10*
%TO.C,K20*%
X156380000Y-61595000D03*
D11*
X154235000Y-61595000D03*
%TD*%
D10*
%TO.C,W31*%
X253605000Y-61595000D03*
D11*
X251460000Y-61595000D03*
%TD*%
D10*
%TO.C,W32*%
X108755000Y-81915000D03*
D11*
X106610000Y-81915000D03*
%TD*%
D12*
%TO.C,R4*%
X203900000Y-81915000D03*
D13*
X201900000Y-81915000D03*
%TD*%
D10*
%TO.C,W21*%
X117475000Y-162560000D03*
D11*
X115330000Y-162560000D03*
%TD*%
D10*
%TO.C,W5*%
X126365000Y-41275000D03*
D11*
X124220000Y-41275000D03*
%TD*%
D10*
%TO.C,K5*%
X59055000Y-139700000D03*
D11*
X56910000Y-139700000D03*
%TD*%
D10*
%TO.C,W11*%
X247255000Y-40640000D03*
D11*
X245110000Y-40640000D03*
%TD*%
D10*
%TO.C,W25*%
X227330000Y-162560000D03*
D11*
X225185000Y-162560000D03*
%TD*%
D10*
%TO.C,K15*%
X241935000Y-81915000D03*
D11*
X239790000Y-81915000D03*
%TD*%
D10*
%TO.C,W19*%
X83820000Y-162560000D03*
D11*
X81675000Y-162560000D03*
%TD*%
D10*
%TO.C,W8*%
X186690000Y-41275000D03*
D11*
X184545000Y-41275000D03*
%TD*%
D10*
%TO.C,K31*%
X146050000Y-101600000D03*
D11*
X143905000Y-101600000D03*
%TD*%
D10*
%TO.C,K17*%
X214870000Y-61595000D03*
D11*
X212725000Y-61595000D03*
%TD*%
D10*
%TO.C,W35*%
X184785000Y-81915000D03*
D11*
X182640000Y-81915000D03*
%TD*%
D10*
%TO.C,W4*%
X106215000Y-41275000D03*
D11*
X104070000Y-41275000D03*
%TD*%
D10*
%TO.C,K22*%
X117475000Y-61595000D03*
D11*
X115330000Y-61595000D03*
%TD*%
D10*
%TO.C,W22*%
X176065000Y-162560000D03*
D11*
X173920000Y-162560000D03*
%TD*%
D10*
%TO.C,W2*%
X69850000Y-41275000D03*
D11*
X67705000Y-41275000D03*
%TD*%
D10*
%TO.C,K34*%
X165905000Y-101600000D03*
D11*
X163760000Y-101600000D03*
%TD*%
D12*
%TO.C,R1*%
X90165000Y-81915000D03*
D13*
X88165000Y-81915000D03*
%TD*%
D10*
%TO.C,W14*%
X30480000Y-101600000D03*
D11*
X28335000Y-101600000D03*
%TD*%
D10*
%TO.C,W6*%
X146220000Y-41275000D03*
D11*
X144075000Y-41275000D03*
%TD*%
D10*
%TO.C,W37*%
X184785000Y-121920000D03*
D11*
X182640000Y-121920000D03*
%TD*%
D10*
%TO.C,K3*%
X50165000Y-101600000D03*
D11*
X48020000Y-101600000D03*
%TD*%
D10*
%TO.C,K2*%
X51605000Y-81915000D03*
D11*
X49460000Y-81915000D03*
%TD*%
D12*
%TO.C,B1*%
X69675000Y-101600000D03*
D13*
X67675000Y-101600000D03*
%TD*%
D10*
%TO.C,W23*%
X192010000Y-162560000D03*
D11*
X189865000Y-162560000D03*
%TD*%
D10*
%TO.C,W17*%
X46525000Y-162560000D03*
D11*
X44380000Y-162560000D03*
%TD*%
D14*
%TO.C,J1*%
X133350000Y-145415000D03*
X158750000Y-145415000D03*
%TD*%
D10*
%TO.C,K6*%
X78980000Y-142240000D03*
D11*
X76835000Y-142240000D03*
%TD*%
D10*
%TO.C,K12*%
X233850000Y-139700000D03*
D11*
X231705000Y-139700000D03*
%TD*%
D10*
%TO.C,W12*%
X40005000Y-61595000D03*
D11*
X37860000Y-61595000D03*
%TD*%
D10*
%TO.C,K21*%
X137160000Y-61595000D03*
D11*
X135015000Y-61595000D03*
%TD*%
D10*
%TO.C,K13*%
X241540000Y-121920000D03*
D11*
X239395000Y-121920000D03*
%TD*%
D10*
%TO.C,W16*%
X40005000Y-142240000D03*
D11*
X37860000Y-142240000D03*
%TD*%
D12*
%TO.C,R3*%
X89995000Y-121920000D03*
D13*
X87995000Y-121920000D03*
%TD*%
D10*
%TO.C,W34*%
X108585000Y-121920000D03*
D11*
X106440000Y-121920000D03*
%TD*%
D10*
%TO.C,K11*%
X214630000Y-142240000D03*
D11*
X212485000Y-142240000D03*
%TD*%
D10*
%TO.C,W1*%
X46355000Y-41275000D03*
D11*
X44210000Y-41275000D03*
%TD*%
D12*
%TO.C,B2*%
X224150000Y-101600000D03*
D13*
X222150000Y-101600000D03*
%TD*%
D10*
%TO.C,K25*%
X70655000Y-81915000D03*
D11*
X68510000Y-81915000D03*
%TD*%
D10*
%TO.C,W7*%
X167005000Y-41275000D03*
D11*
X164860000Y-41275000D03*
%TD*%
D12*
%TO.C,R6*%
X204295000Y-121920000D03*
D13*
X202295000Y-121920000D03*
%TD*%
D10*
%TO.C,K14*%
X242810000Y-101600000D03*
D11*
X240665000Y-101600000D03*
%TD*%
D10*
%TO.C,K33*%
X165975000Y-81915000D03*
D11*
X163830000Y-81915000D03*
%TD*%
D10*
%TO.C,K30*%
X146685000Y-81915000D03*
D11*
X144540000Y-81915000D03*
%TD*%
D10*
%TO.C,K1*%
X59225000Y-61595000D03*
D11*
X57080000Y-61595000D03*
%TD*%
M02*
