%TF.GenerationSoftware,KiCad,Pcbnew,7.0.6-7.0.6~ubuntu22.04.1*%
%TF.CreationDate,2023-08-02T20:46:46-04:00*%
%TF.ProjectId,AG_HARVEST_LED,41475f48-4152-4564-9553-545f4c45442e,rev?*%
%TF.SameCoordinates,Original*%
%TF.FileFunction,Profile,NP*%
%FSLAX46Y46*%
G04 Gerber Fmt 4.6, Leading zero omitted, Abs format (unit mm)*
G04 Created by KiCad (PCBNEW 7.0.6-7.0.6~ubuntu22.04.1) date 2023-08-02 20:46:46*
%MOMM*%
%LPD*%
G01*
G04 APERTURE LIST*
%TA.AperFunction,Profile*%
%ADD10C,0.007874*%
%TD*%
G04 APERTURE END LIST*
D10*
X144264384Y-142874917D02*
X144264384Y-145257413D01*
X144264384Y-145257413D02*
G75*
G03*
X147835616Y-145257413I1785616J13D01*
G01*
X242491107Y-155574892D02*
G75*
G03*
X242491107Y-155574892I-3174994J0D01*
G01*
X246134800Y-172719865D02*
G75*
G03*
X257102997Y-166422069I0J12699965D01*
G01*
X55958881Y-155574892D02*
G75*
G03*
X55958881Y-155574892I-3174994J0D01*
G01*
X162321167Y-171528560D02*
X163512465Y-172719858D01*
X246134800Y-30480142D02*
X45965200Y-30480142D01*
X257103024Y-36777992D02*
G75*
G03*
X246134800Y-30480142I-10968224J-6402108D01*
G01*
X34996225Y-36778195D02*
G75*
G03*
X34996564Y-166422386I111053775J-64821805D01*
G01*
X129778833Y-158432386D02*
X129778833Y-171528560D01*
X129778833Y-171528560D02*
X128587535Y-172719858D01*
X162321167Y-158432386D02*
X162321167Y-171528560D01*
X242491107Y-47625108D02*
G75*
G03*
X242491107Y-47625108I-3174994J0D01*
G01*
X55958881Y-47625108D02*
G75*
G03*
X55958881Y-47625108I-3174994J0D01*
G01*
X162321133Y-158432254D02*
G75*
G03*
X129778867Y-158432254I-16271133J-8281617D01*
G01*
X147835616Y-142874917D02*
X147835616Y-145257413D01*
X257103436Y-166422386D02*
G75*
G03*
X257103775Y-36778195I-111053436J64822386D01*
G01*
X147835616Y-142874917D02*
G75*
G03*
X144264384Y-142874917I-1785616J-3D01*
G01*
X128587535Y-172719858D02*
X45965200Y-172719858D01*
X163512465Y-172719858D02*
X246134800Y-172719858D01*
X34997009Y-166422065D02*
G75*
G03*
X45965200Y-172719858I10968191J6402165D01*
G01*
X45965200Y-30480145D02*
G75*
G03*
X34996970Y-36777988I0J-12699975D01*
G01*
M02*
